<svg xmlns="http://www.w3.org/2000/svg" width="21" height="21" viewBox="0 0 21 21" fill="none">
    <path
        d="M13.2829 16.2275C13.341 16.2855 13.3871 16.3545 13.4185 16.4303C13.4499 16.5062 13.4661 16.5875 13.4661 16.6697C13.4661 16.7518 13.4499 16.8331 13.4185 16.909C13.3871 16.9848 13.341 17.0538 13.2829 17.1118C13.2249 17.1699 13.1559 17.216 13.08 17.2474C13.0042 17.2788 12.9229 17.295 12.8407 17.295C12.7586 17.295 12.6773 17.2788 12.6014 17.2474C12.5256 17.216 12.4566 17.1699 12.3985 17.1118L6.14854 10.8618C6.09043 10.8038 6.04434 10.7349 6.01288 10.659C5.98143 10.5831 5.96524 10.5018 5.96524 10.4197C5.96524 10.3375 5.98143 10.2562 6.01288 10.1803C6.04434 10.1044 6.09043 10.0355 6.14854 9.97747L12.3985 3.72747C12.5158 3.6102 12.6749 3.54431 12.8407 3.54431C13.0066 3.54431 13.1656 3.6102 13.2829 3.72747C13.4002 3.84475 13.4661 4.00381 13.4661 4.16966C13.4661 4.33551 13.4002 4.49457 13.2829 4.61185L7.47433 10.4197L13.2829 16.2275Z"
        fill="#9F9FA9" />
</svg>