<svg xmlns="http://www.w3.org/2000/svg" width="54" height="49" viewBox="0 0 54 49" fill="none">
    <path
        d="M19.6524 47.6788C20.1094 47.7731 20.5852 47.6963 20.9893 47.463C21.3934 47.2296 21.6978 46.856 21.8447 46.4131C27.5626 29.1845 26.0496 13.7518 17.7648 5.12465C14.938 2.14631 11.2905 0.0745346 7.28467 -0.827936C4.72249 -1.40293 2.08384 -1.5573 -0.527912 -1.28501C-0.68797 -1.27078 -0.84182 -1.21627 -0.975134 -1.12656C-1.10845 -1.03685 -1.21689 -0.914858 -1.29036 -0.771948C-1.36383 -0.629038 -1.39994 -0.469858 -1.39531 -0.309235C-1.39069 -0.148613 -1.34549 0.00822631 -1.26393 0.146675L13.3417 25.0068C13.4668 25.2235 13.548 25.4627 13.5807 25.7108C13.6134 25.9589 13.5968 26.2109 13.5321 26.4526C13.4673 26.6943 13.3556 26.9209 13.2033 27.1194C13.051 27.3179 12.861 27.4844 12.6443 27.6095C12.4277 27.7346 12.1884 27.8158 11.9404 27.8485C11.6923 27.8812 11.4402 27.8646 11.1985 27.7999C10.9569 27.7351 10.7303 27.6234 10.5318 27.4711C10.3333 27.3188 10.1667 27.1288 10.0416 26.9121L-5.91505 -0.254332L-8.30344 -4.39114C-8.54285 -4.81896 -8.9345 -5.14102 -9.40052 -5.29328C-9.86653 -5.44555 -10.3728 -5.41686 -10.8186 -5.21294C-11.0542 -5.09898 -11.2638 -4.93766 -11.4343 -4.73906C-11.6048 -4.54047 -11.7325 -4.30886 -11.8095 -4.05869C-11.8865 -3.80852 -11.9111 -3.54518 -11.8817 -3.28509C-11.8524 -3.025 -11.7697 -2.77375 -11.6389 -2.54704L-8.81289 2.34775C-11.2567 5.17746 -12.9934 8.22866 -13.9802 11.4513C-14.0579 11.7048 -14.1309 11.9588 -14.1991 12.2132C-15.2013 15.9156 -15.1547 19.8238 -14.0645 23.5013C-10.7356 34.9897 1.87008 44.0181 19.6524 47.6788Z"
        fill="#5EA500" />
    <path
        d="M51.9422 23.1315C52.2483 23.03 52.5064 22.8197 52.6676 22.5404C52.8289 22.2612 52.8819 21.9325 52.8168 21.6167C50.2862 9.33219 44.0494 0.620366 36.1115 -1.67968C33.3911 -2.48529 30.4928 -2.46486 27.7841 -1.62098C26.0523 -1.07988 24.42 -0.260681 22.9513 0.804534C22.8605 0.868346 22.7872 0.954114 22.7384 1.05385C22.6897 1.15359 22.6669 1.26405 22.6723 1.37494C22.6777 1.48584 22.7111 1.59356 22.7694 1.68807C22.8276 1.78259 22.9089 1.86082 23.0055 1.91549L40.3336 11.7453C40.4833 11.8317 40.6145 11.9468 40.7198 12.084C40.825 12.2211 40.9022 12.3777 40.947 12.5447C40.9917 12.7117 41.0031 12.8858 40.9806 13.0572C40.958 13.2286 40.9019 13.3939 40.8155 13.5436C40.729 13.6933 40.6139 13.8246 40.4768 13.9298C40.3396 14.0351 40.1831 14.1123 40.0161 14.157C39.8491 14.2017 39.6749 14.2132 39.5035 14.1906C39.3321 14.168 39.1669 14.1119 39.0171 14.0255L20.0839 3.28236L17.2256 1.63213C16.9345 1.45884 16.5889 1.40144 16.2574 1.47132C15.926 1.5412 15.633 1.73326 15.4367 2.0093C15.335 2.1589 15.2653 2.32784 15.2319 2.50557C15.1985 2.68331 15.2021 2.86602 15.2425 3.04231C15.2828 3.21859 15.3591 3.38466 15.4665 3.53015C15.574 3.67564 15.7102 3.79742 15.8668 3.88789L19.2488 5.8405C18.7641 8.37798 18.779 10.8037 19.3019 13.0729C19.3429 13.2515 19.387 13.4287 19.4341 13.6045C20.1135 16.1662 21.4915 18.4886 23.4143 20.3125C29.3752 26.0368 40.0371 27.0842 51.9422 23.1315Z"
        fill="#5EA500" />
</svg>