<svg xmlns="http://www.w3.org/2000/svg" width="28" height="33" viewBox="0 0 28 33" fill="none">
    <path
        d="M27.0857 14.2765C27.0744 14.083 26.9924 13.9003 26.8554 13.7633C26.7183 13.6262 26.5356 13.5442 26.3421 13.5329C18.8146 13.0909 12.785 15.3572 10.2142 19.609C9.32308 21.0634 8.88395 22.7496 8.95252 24.454C8.99727 25.5438 9.21902 26.6192 9.60907 27.6378C9.63199 27.7005 9.6704 27.7564 9.72073 27.8002C9.77105 27.8441 9.83166 27.8745 9.8969 27.8886C9.96214 27.9027 10.0299 27.9001 10.0938 27.8809C10.1578 27.8618 10.2159 27.8268 10.2626 27.7792L18.6672 19.2461C18.7407 19.1726 18.828 19.1143 18.924 19.0745C19.02 19.0347 19.123 19.0143 19.2269 19.0143C19.3308 19.0143 19.4337 19.0347 19.5298 19.0745C19.6258 19.1143 19.713 19.1726 19.7865 19.2461C19.86 19.3196 19.9183 19.4068 19.9581 19.5028C19.9979 19.5989 20.0184 19.7018 20.0184 19.8057C20.0184 19.9097 19.9979 20.0126 19.9581 20.1086C19.9183 20.2046 19.86 20.2919 19.7865 20.3654L10.6018 29.6885L9.19872 31.0916C9.05281 31.2337 8.96569 31.4254 8.9547 31.6288C8.94371 31.8321 9.00964 32.0322 9.1394 32.1892C9.21046 32.2714 9.29772 32.3382 9.39573 32.3853C9.49375 32.4323 9.60041 32.4587 9.70906 32.4627C9.81772 32.4666 9.92602 32.4482 10.0272 32.4084C10.1284 32.3687 10.2204 32.3085 10.2973 32.2317L11.9574 30.5715C13.3555 31.2478 14.7665 31.6167 16.1656 31.6661C16.2757 31.67 16.3855 31.672 16.4949 31.672C18.0882 31.6761 19.6513 31.2372 21.0097 30.4044C25.2614 27.8336 27.5287 21.805 27.0857 14.2765Z"
        fill="#5EA500" />
    <path
        d="M11.5893 1.10393C11.5157 0.992037 11.4035 0.911072 11.2742 0.876407C11.1448 0.841741 11.0072 0.855789 10.8875 0.915881C6.2305 3.25196 3.40551 6.69108 3.33605 10.1233C3.30529 11.3015 3.62509 12.4622 4.25491 13.4583C4.6582 14.095 5.16239 14.6619 5.7477 15.1367C5.78307 15.1662 5.82536 15.1864 5.87062 15.1953C5.91588 15.2041 5.96265 15.2014 6.00656 15.1873C6.05048 15.1732 6.09011 15.1482 6.12177 15.1147C6.15343 15.0811 6.17609 15.0401 6.18763 14.9955L8.26877 6.98592C8.28735 6.91656 8.31942 6.85153 8.36314 6.79456C8.40686 6.73758 8.46137 6.68978 8.52356 6.65387C8.58575 6.61796 8.65441 6.59466 8.72561 6.58528C8.79681 6.57591 8.86916 6.58065 8.93852 6.59924C9.00789 6.61783 9.07292 6.64989 9.12989 6.69361C9.18686 6.73733 9.23467 6.79184 9.27057 6.85403C9.30648 6.91623 9.32979 6.98488 9.33916 7.05608C9.34853 7.12728 9.34379 7.19963 9.32521 7.269L7.05019 16.0208L6.69535 17.3451C6.65711 17.4805 6.67123 17.6253 6.73491 17.7508C6.79859 17.8763 6.90715 17.9732 7.03902 18.0223C7.10996 18.047 7.18524 18.0568 7.26015 18.0511C7.33505 18.0454 7.40798 18.0243 7.47437 17.9892C7.54077 17.954 7.5992 17.9056 7.64603 17.8468C7.69285 17.7881 7.72707 17.7203 7.74653 17.6477L8.16639 16.0808C9.23664 16.0025 10.2084 15.7357 11.0626 15.282C11.1299 15.2463 11.1962 15.2096 11.2617 15.1718C12.2165 14.6238 13.0002 13.8211 13.5253 12.8535C15.1813 9.84638 14.4552 5.45577 11.5893 1.10393Z"
        fill="#5EA500" />
</svg>