<svg xmlns="http://www.w3.org/2000/svg" width="25" height="25" viewBox="0 0 25 25" fill="none">
  <path d="M12.3688 2.81091C10.4405 2.81091 8.55541 3.38274 6.95203 4.45408C5.34865 5.52543 4.09897 7.04817 3.36101 8.82975C2.62306 10.6113 2.42998 12.5717 2.80618 14.463C3.18239 16.3544 4.11099 18.0916 5.47455 19.4552C6.83811 20.8188 8.57539 21.7474 10.4667 22.1236C12.358 22.4998 14.3184 22.3067 16.1 21.5687C17.8816 20.8308 19.4043 19.5811 20.4757 17.9777C21.547 16.3743 22.1188 14.4893 22.1188 12.5609C22.1161 9.97589 21.088 7.49753 19.2601 5.66964C17.4322 3.84175 14.9539 2.81364 12.3688 2.81091ZM7.31384 19.0765C7.8564 18.228 8.60384 17.5297 9.48727 17.046C10.3707 16.5623 11.3617 16.3087 12.3688 16.3087C13.376 16.3087 14.367 16.5623 15.2504 17.046C16.1338 17.5297 16.8813 18.228 17.4238 19.0765C15.9785 20.2006 14.1998 20.8109 12.3688 20.8109C10.5379 20.8109 8.75915 20.2006 7.31384 19.0765ZM9.36884 11.8109C9.36884 11.2176 9.54479 10.6376 9.87443 10.1442C10.2041 9.65086 10.6726 9.26634 11.2208 9.03927C11.769 8.81221 12.3722 8.7528 12.9541 8.86856C13.5361 8.98431 14.0706 9.27004 14.4902 9.68959C14.9097 10.1092 15.1954 10.6437 15.3112 11.2256C15.427 11.8076 15.3675 12.4108 15.1405 12.959C14.9134 13.5071 14.5289 13.9757 14.0356 14.3053C13.5422 14.635 12.9622 14.8109 12.3688 14.8109C11.5732 14.8109 10.8101 14.4948 10.2475 13.9322C9.68491 13.3696 9.36884 12.6066 9.36884 11.8109ZM18.5338 18.0369C17.6974 16.8247 16.5212 15.887 15.1532 15.3415C15.888 14.7628 16.4242 13.9694 16.6873 13.0718C16.9503 12.1741 16.9271 11.2168 16.6208 10.333C16.3145 9.44916 15.7405 8.68274 14.9784 8.14031C14.2164 7.59788 13.3042 7.30639 12.3688 7.30639C11.4335 7.30639 10.5213 7.59788 9.75927 8.14031C8.99723 8.68274 8.42316 9.44916 8.11689 10.333C7.81062 11.2168 7.78738 12.1741 8.05041 13.0718C8.31343 13.9694 8.84964 14.7628 9.58447 15.3415C8.21648 15.887 7.04031 16.8247 6.20384 18.0369C5.14687 16.8483 4.45603 15.3795 4.21451 13.8073C3.97298 12.2352 4.19107 10.6267 4.84251 9.17569C5.49395 7.72464 6.55097 6.49283 7.88628 5.6286C9.22159 4.76438 10.7783 4.30458 12.3688 4.30458C13.9594 4.30458 15.5161 4.76438 16.8514 5.6286C18.1867 6.49283 19.2437 7.72464 19.8952 9.17569C20.5466 10.6267 20.7647 12.2352 20.5232 13.8073C20.2816 15.3795 19.5908 16.8483 18.5338 18.0369Z" fill="#9F9FA9"/>
</svg>