<svg width="55" height="54" viewBox="0 0 55 54" fill="none" xmlns="http://www.w3.org/2000/svg">
<rect x="0.977722" width="54" height="54" rx="27" fill="#5EA500"/>
<path d="M28.9777 26V33C28.9777 33.2652 28.8724 33.5196 28.6848 33.7071C28.4973 33.8946 28.2429 34 27.9777 34C27.7125 34 27.4582 33.8946 27.2706 33.7071C27.0831 33.5196 26.9777 33.2652 26.9777 33V26C26.9777 25.7348 27.0831 25.4804 27.2706 25.2929C27.4582 25.1054 27.7125 25 27.9777 25C28.2429 25 28.4973 25.1054 28.6848 25.2929C28.8724 25.4804 28.9777 25.7348 28.9777 26ZM33.5827 25.9L32.8827 32.9C32.8689 33.0311 32.8811 33.1636 32.9187 33.2899C32.9562 33.4162 33.0183 33.5339 33.1015 33.6361C33.1847 33.7383 33.2873 33.8231 33.4033 33.8855C33.5193 33.948 33.6466 33.9869 33.7777 34C33.8115 34.0019 33.8453 34.0019 33.879 34C34.1267 33.9997 34.3654 33.9075 34.549 33.7412C34.7326 33.5749 34.848 33.3464 34.8727 33.1L35.5727 26.1C35.5992 25.8361 35.5199 25.5725 35.352 25.3671C35.1842 25.1618 34.9416 25.0315 34.6777 25.005C34.4138 24.9785 34.1502 25.0579 33.9449 25.2257C33.7395 25.3936 33.6092 25.6361 33.5827 25.9ZM22.3727 25.9C22.3462 25.6361 22.2159 25.3936 22.0106 25.2257C21.8052 25.0579 21.5416 24.9785 21.2777 25.005C21.0138 25.0315 20.7713 25.1618 20.6034 25.3671C20.4356 25.5725 20.3562 25.8361 20.3827 26.1L21.0827 33.1C21.1076 33.3475 21.2238 33.5769 21.4088 33.7433C21.5937 33.9097 21.834 34.0012 22.0827 34C22.1165 34.0019 22.1503 34.0019 22.184 34C22.3146 33.9869 22.4414 33.9481 22.5571 33.886C22.6728 33.8239 22.7752 33.7395 22.8583 33.6379C22.9414 33.5362 23.0036 33.4191 23.0415 33.2934C23.0794 33.1676 23.0921 33.0357 23.079 32.905L22.3727 25.9ZM41.969 22.1325L40.0852 36.265C40.0195 36.7446 39.7827 37.1844 39.4184 37.5032C39.0541 37.822 38.5868 37.9984 38.1027 38H17.8527C17.3686 37.9984 16.9014 37.822 16.5371 37.5032C16.1728 37.1844 15.9359 36.7446 15.8702 36.265L13.9865 22.1325C13.9676 21.9912 13.9791 21.8476 14.0203 21.7111C14.0615 21.5747 14.1313 21.4486 14.2252 21.3414C14.3191 21.2341 14.4348 21.1482 14.5645 21.0893C14.6943 21.0304 14.8352 21 14.9777 21H20.524L27.2277 13.3412C27.3216 13.2348 27.437 13.1496 27.5663 13.0912C27.6956 13.0329 27.8359 13.0027 27.9777 13.0027C28.1196 13.0027 28.2599 13.0329 28.3892 13.0912C28.5185 13.1496 28.6339 13.2348 28.7277 13.3412L35.4315 21H40.9777C41.1202 21 41.2611 21.0304 41.3909 21.0893C41.5207 21.1482 41.6364 21.2341 41.7303 21.3414C41.8241 21.4486 41.894 21.5747 41.9352 21.7111C41.9763 21.8476 41.9879 21.9912 41.969 22.1325ZM23.1815 21H32.774L27.9777 15.5187L23.1815 21ZM39.8352 23H16.1202L17.8527 36H38.1027L39.8352 23Z" fill="#F0F0F0"/>
</svg>
