<svg xmlns="http://www.w3.org/2000/svg" width="25" height="25" viewBox="0 0 25 25" fill="none">
    <path
        d="M12.7838 7.94394V12.0193L16.17 14.0508C16.3406 14.1533 16.4635 14.3193 16.5116 14.5123C16.5598 14.7053 16.5293 14.9096 16.4269 15.0802C16.3244 15.2508 16.1584 15.3736 15.9654 15.4218C15.7724 15.47 15.5681 15.4395 15.3975 15.3371L11.6475 13.0871C11.5365 13.0204 11.4447 12.9261 11.3809 12.8134C11.3172 12.7007 11.2837 12.5734 11.2838 12.4439V7.94394C11.2838 7.74503 11.3628 7.55426 11.5034 7.41361C11.6441 7.27296 11.8349 7.19394 12.0338 7.19394C12.2327 7.19394 12.4234 7.27296 12.5641 7.41361C12.7047 7.55426 12.7838 7.74503 12.7838 7.94394ZM21.0338 5.69394C20.8349 5.69394 20.6441 5.77296 20.5034 5.91361C20.3628 6.05426 20.2838 6.24503 20.2838 6.44394V8.13144C19.6885 7.44144 19.081 6.77675 18.3975 6.08488C17.1468 4.83398 15.5551 3.9794 13.8214 3.62793C12.0877 3.27646 10.2889 3.44368 8.64975 4.10869C7.01057 4.77371 5.60371 5.90703 4.60495 7.36704C3.6062 8.82706 3.05984 10.549 3.03415 12.3178C3.00846 14.0865 3.50458 15.8236 4.46051 17.3121C5.41644 18.8005 6.78979 19.9742 8.40897 20.6865C10.0281 21.3988 11.8213 21.6182 13.5645 21.3173C15.3076 21.0163 16.9234 20.2083 18.21 18.9943C18.2817 18.9265 18.3393 18.8454 18.3796 18.7554C18.4199 18.6654 18.442 18.5684 18.4448 18.4698C18.4476 18.3713 18.4309 18.2732 18.3958 18.1811C18.3607 18.0889 18.3077 18.0047 18.24 17.933C18.1723 17.8613 18.0911 17.8037 18.0012 17.7634C17.9112 17.7232 17.8141 17.701 17.7156 17.6982C17.6171 17.6954 17.5189 17.7121 17.4268 17.7472C17.3347 17.7824 17.2504 17.8353 17.1788 17.903C16.1063 18.9137 14.7599 19.5861 13.3076 19.8361C11.8553 20.0862 10.3615 19.9028 9.01277 19.309C7.66405 18.7152 6.52016 17.7372 5.72393 16.4971C4.92771 15.2571 4.51444 13.81 4.53575 12.3365C4.55705 10.8629 5.01197 9.42836 5.84371 8.21185C6.67544 6.99535 7.84713 6.05082 9.21245 5.49623C10.5778 4.94164 12.0762 4.80157 13.5207 5.09349C14.9651 5.38542 16.2916 6.09642 17.3344 7.13769C18.0975 7.91019 18.766 8.65457 19.44 9.44394H17.2838C17.0849 9.44394 16.8941 9.52296 16.7534 9.66361C16.6128 9.80426 16.5338 9.99503 16.5338 10.1939C16.5338 10.3929 16.6128 10.5836 16.7534 10.7243C16.8941 10.8649 17.0849 10.9439 17.2838 10.9439H21.0338C21.2327 10.9439 21.4234 10.8649 21.5641 10.7243C21.7047 10.5836 21.7838 10.3929 21.7838 10.1939V6.44394C21.7838 6.24503 21.7047 6.05426 21.5641 5.91361C21.4234 5.77296 21.2327 5.69394 21.0338 5.69394Z"
        fill="currentColor" />
</svg>