<svg xmlns="http://www.w3.org/2000/svg" width="25" height="25" viewBox="0 0 25 25" fill="none">
    <path
        d="M21.538 10.6327L14.038 3.13272C13.7568 2.85163 13.3754 2.69373 12.9777 2.69373C12.5801 2.69373 12.1987 2.85163 11.9174 3.13272L4.41742 10.6327C4.27745 10.7716 4.16651 10.937 4.09102 11.1192C4.01554 11.3014 3.97703 11.4968 3.97773 11.694V20.694C3.97773 20.8929 4.05675 21.0836 4.1974 21.2243C4.33805 21.365 4.52882 21.444 4.72773 21.444H10.7277C10.9266 21.444 11.1174 21.365 11.2581 21.2243C11.3987 21.0836 11.4777 20.8929 11.4777 20.694V15.444H14.4777V20.694C14.4777 20.8929 14.5567 21.0836 14.6974 21.2243C14.8381 21.365 15.0288 21.444 15.2277 21.444H21.2277C21.4266 21.444 21.6174 21.365 21.7581 21.2243C21.8987 21.0836 21.9777 20.8929 21.9777 20.694V11.694C21.9784 11.4968 21.9399 11.3014 21.8644 11.1192C21.789 10.937 21.678 10.7716 21.538 10.6327ZM20.4777 19.944H15.9777V14.694C15.9777 14.4951 15.8987 14.3043 15.7581 14.1636C15.6174 14.023 15.4266 13.944 15.2277 13.944H10.7277C10.5288 13.944 10.3381 14.023 10.1974 14.1636C10.0567 14.3043 9.97773 14.4951 9.97773 14.694V19.944H5.47773V11.694L12.9777 4.19397L20.4777 11.694V19.944Z"
        fill="currentColor" />
</svg>