<svg xmlns="http://www.w3.org/2000/svg" width="25" height="25" viewBox="0 0 25 25" fill="none">
    <path
        d="M22.1277 5.91332L19.1277 2.91332C19.058 2.84359 18.9753 2.78827 18.8843 2.75053C18.7932 2.71279 18.6956 2.69336 18.597 2.69336C18.4985 2.69336 18.4009 2.71279 18.3098 2.75053C18.2188 2.78827 18.1361 2.84359 18.0664 2.91332L9.06642 11.9133C8.99679 11.983 8.94158 12.0658 8.90394 12.1568C8.8663 12.2479 8.84697 12.3454 8.84705 12.4439V15.4439C8.84705 15.6429 8.92606 15.8336 9.06672 15.9743C9.20737 16.1149 9.39813 16.1939 9.59705 16.1939H12.597C12.6956 16.194 12.7931 16.1747 12.8842 16.1371C12.9752 16.0994 13.058 16.0442 13.1277 15.9746L22.1277 6.97457C22.1974 6.90492 22.2527 6.8222 22.2905 6.73115C22.3282 6.64011 22.3476 6.54251 22.3476 6.44395C22.3476 6.34539 22.3282 6.24779 22.2905 6.15674C22.2527 6.0657 22.1974 5.98298 22.1277 5.91332ZM12.2867 14.6939H10.347V12.7543L16.347 6.75426L18.2867 8.69395L12.2867 14.6939ZM19.347 7.63364L17.4074 5.69395L18.597 4.50426L20.5367 6.44395L19.347 7.63364ZM21.597 12.4439V19.9439C21.597 20.3418 21.439 20.7233 21.1577 21.0046C20.8764 21.2859 20.4949 21.4439 20.097 21.4439H5.09705C4.69922 21.4439 4.31769 21.2859 4.03639 21.0046C3.75508 20.7233 3.59705 20.3418 3.59705 19.9439V4.94395C3.59705 4.54612 3.75508 4.16459 4.03639 3.88329C4.31769 3.60198 4.69922 3.44395 5.09705 3.44395H12.597C12.796 3.44395 12.9867 3.52297 13.1274 3.66362C13.268 3.80427 13.347 3.99504 13.347 4.19395C13.347 4.39286 13.268 4.58363 13.1274 4.72428C12.9867 4.86493 12.796 4.94395 12.597 4.94395H5.09705V19.9439H20.097V12.4439C20.097 12.245 20.1761 12.0543 20.3167 11.9136C20.4574 11.773 20.6481 11.6939 20.847 11.6939C21.046 11.6939 21.2367 11.773 21.3774 11.9136C21.518 12.0543 21.597 12.245 21.597 12.4439Z"
        fill="#9F9FA9" />
</svg>