<svg xmlns="http://www.w3.org/2000/svg" width="25" height="25" viewBox="0 0 25 25" fill="none">
    <path
        d="M12.9777 2.69397C11.0494 2.69397 9.1643 3.2658 7.56092 4.33714C5.95754 5.40848 4.70786 6.93123 3.9699 8.71281C3.23195 10.4944 3.03886 12.4548 3.41507 14.3461C3.79128 16.2374 4.71987 17.9747 6.08344 19.3383C7.447 20.7018 9.18428 21.6304 11.0756 22.0066C12.9669 22.3828 14.9273 22.1897 16.7089 21.4518C18.4905 20.7138 20.0132 19.4642 21.0846 17.8608C22.1559 16.2574 22.7277 14.3723 22.7277 12.444C22.725 9.85895 21.6969 7.38058 19.869 5.55269C18.0411 3.72481 15.5627 2.6967 12.9777 2.69397ZM7.92273 18.9596C8.46529 18.111 9.21273 17.4127 10.0962 16.929C10.9796 16.4453 11.9705 16.1918 12.9777 16.1918C13.9849 16.1918 14.9759 16.4453 15.8593 16.929C16.7427 17.4127 17.4902 18.111 18.0327 18.9596C16.5874 20.0836 14.8087 20.6939 12.9777 20.6939C11.1468 20.6939 9.36804 20.0836 7.92273 18.9596ZM9.97773 11.694C9.97773 11.1006 10.1537 10.5206 10.4833 10.0273C10.813 9.53391 11.2815 9.14939 11.8297 8.92233C12.3779 8.69527 12.9811 8.63586 13.563 8.75161C14.1449 8.86737 14.6795 9.15309 15.099 9.57265C15.5186 9.99221 15.8043 10.5268 15.9201 11.1087C16.0358 11.6906 15.9764 12.2938 15.7494 12.842C15.5223 13.3902 15.1378 13.8587 14.6444 14.1884C14.1511 14.518 13.5711 14.694 12.9777 14.694C12.1821 14.694 11.419 14.3779 10.8564 13.8153C10.2938 13.2527 9.97773 12.4896 9.97773 11.694ZM19.1427 17.9199C18.3063 16.7078 17.1301 15.77 15.7621 15.2246C16.4969 14.6458 17.0331 13.8525 17.2962 12.9548C17.5592 12.0572 17.5359 11.0999 17.2297 10.216C16.9234 9.33222 16.3493 8.5658 15.5873 8.02337C14.8252 7.48093 13.9131 7.18945 12.9777 7.18945C12.0423 7.18945 11.1302 7.48093 10.3682 8.02337C9.60612 8.5658 9.03204 9.33222 8.72578 10.216C8.41951 11.0999 8.39627 12.0572 8.65929 12.9548C8.92232 13.8525 9.45852 14.6458 10.1934 15.2246C8.82537 15.77 7.64919 16.7078 6.81273 17.9199C5.75576 16.7313 5.06492 15.2625 4.82339 13.6904C4.58187 12.1182 4.79996 10.5098 5.4514 9.05875C6.10284 7.60769 7.15986 6.37589 8.49517 5.51166C9.83048 4.64743 11.3871 4.18764 12.9777 4.18764C14.5683 4.18764 16.125 4.64743 17.4603 5.51166C18.7956 6.37589 19.8526 7.60769 20.5041 9.05875C21.1555 10.5098 21.3736 12.1182 21.1321 13.6904C20.8905 15.2625 20.1997 16.7313 19.1427 17.9199Z"
        fill="currentColor" />
</svg>